<svg width="133" height="72" viewBox="0 0 133 72" fill="none" xmlns="http://www.w3.org/2000/svg">
<g clip-path="url(#clip0_578_244)">
<g clip-path="url(#clip1_578_244)">
<mask id="mask0_578_244" style="mask-type:luminance" maskUnits="userSpaceOnUse" x="17" y="26" width="98" height="19">
<path d="M114.81 26.6931H17.9734V44.4884H114.81V26.6931Z" fill="white"/>
</mask>
<g mask="url(#mask0_578_244)">
<path d="M44.1103 31.7969C44.3698 31.7969 44.5923 32.0069 44.5923 32.2788V41.4854C44.5923 41.745 44.3575 41.9551 44.1103 41.9551H42.8622C42.6274 41.9551 42.3925 41.7697 42.3925 41.5102V40.6575C41.7623 41.5843 40.6748 42.2269 39.093 42.2269C36.4484 42.2269 34.8172 40.4721 34.8172 37.8646V32.2541C34.8172 31.9946 35.052 31.7845 35.2991 31.7845H36.5473C36.8068 31.7845 37.0169 31.9946 37.0169 32.2541V37.5062C37.0169 39.1992 37.9066 40.3238 39.6615 40.3238C41.3792 40.3238 42.3925 39.1621 42.3925 37.5309V32.2541C42.3925 31.9946 42.6274 31.7845 42.8622 31.7845H44.1103V31.7969ZM25.6971 26.6931C21.4212 26.6931 17.9734 30.0173 17.9734 34.4538C17.9734 38.9026 21.4212 42.2146 25.6971 42.2146C26.4262 42.2146 27.1306 42.1157 27.7979 41.9303L28.6382 44.0929C28.7248 44.3278 28.8977 44.4761 29.2067 44.4761H30.5414C30.8626 44.4761 31.0975 44.266 30.9492 43.8582L29.8617 41.0282C31.9996 39.6812 33.4207 37.2961 33.4207 34.4414C33.4207 30.0173 29.9729 26.6931 25.6971 26.6931ZM29.0584 38.9644L28.0821 36.4311C27.9956 36.221 27.8226 36.0233 27.4519 36.0233H26.179C25.8577 36.0233 25.6106 36.2333 25.7589 36.6411L27.0441 39.9654C26.6239 40.0766 26.1667 40.1261 25.6971 40.1261C22.5705 40.1261 20.3461 37.6669 20.3461 34.4538C20.3461 31.2408 22.5705 28.7815 25.6971 28.7815C28.8236 28.7815 31.048 31.2408 31.048 34.4538C31.048 36.3322 30.2942 37.9387 29.0584 38.9644ZM114.773 41.436C114.884 41.6955 114.748 41.9427 114.439 41.9427H113.043C112.783 41.9427 112.573 41.8191 112.487 41.5596L109.903 34.6145L107.284 41.5596C107.173 41.8314 106.987 41.9427 106.728 41.9427H105.48C105.22 41.9427 105.035 41.8314 104.923 41.5596L102.279 34.5774L99.6712 41.5596C99.5602 41.8191 99.3746 41.9427 99.1154 41.9427H97.8056C97.5458 41.9427 97.3607 41.8191 97.2492 41.5596L94.6665 34.5774L91.9972 41.5596C91.8857 41.8314 91.7006 41.9427 91.4408 41.9427H90.1928C89.9335 41.9427 89.7479 41.8314 89.637 41.5596L87.0293 34.5774L84.4217 41.5596C84.3351 41.8191 84.1251 41.9427 83.8659 41.9427H82.5064C82.1849 41.9427 82.0615 41.6831 82.1724 41.436L85.7071 32.1923C85.8181 31.9204 86.0037 31.7845 86.263 31.7845H87.7833C88.0425 31.7845 88.2282 31.9081 88.3391 32.1923L90.885 38.9397L93.406 32.1923C93.5169 31.9204 93.7026 31.7845 93.9618 31.7845H95.4572C95.717 31.7845 95.9021 31.9081 96.0136 32.1923L98.5097 38.9397L101.006 32.1923C101.117 31.9204 101.302 31.7845 101.562 31.7845H103.069C103.329 31.7845 103.514 31.9081 103.626 32.1923L106.159 38.9397L108.631 32.1923C108.742 31.9204 108.927 31.7845 109.187 31.7845H110.707C110.966 31.7845 111.152 31.9081 111.263 32.1923L114.773 41.436ZM56.2087 31.7969H54.9605C54.701 31.7969 54.4786 32.0069 54.4786 32.2788V33.1191C53.8483 32.1676 52.6125 31.4879 51.1543 31.4879C48.3985 31.4879 46.0382 33.6629 46.0382 36.8389C46.0382 40.0519 48.4109 42.2146 51.1419 42.2146C52.6249 42.2146 53.8236 41.5349 54.491 40.5833V41.4731C54.491 41.7326 54.7257 41.9427 54.9729 41.9427H56.221C56.4805 41.9427 56.6906 41.7326 56.6906 41.4731V32.2788C56.6783 32.0069 56.4682 31.7969 56.2087 31.7969ZM51.3891 40.1879C49.5725 40.1879 48.2749 38.7049 48.2749 36.8636C48.2749 34.9976 49.5602 33.564 51.3891 33.564C53.1934 33.564 54.5033 34.9976 54.5033 36.8636C54.491 38.7173 53.181 40.1879 51.3891 40.1879ZM71.1 40.5092C71.3718 40.8429 71.137 41.1024 70.9887 41.2136C70.1236 41.8685 68.9744 42.2269 67.7262 42.2269C64.575 42.2269 62.4741 39.916 62.4741 36.876C62.4741 33.8359 64.575 31.5003 67.7262 31.5003C68.9744 31.5003 70.1113 31.8586 70.9887 32.5136C71.137 32.6248 71.3471 32.8473 71.1 33.218L70.5068 34.046C70.2719 34.3673 70.0001 34.2808 69.7653 34.1325C69.2092 33.7989 68.5542 33.5146 67.8004 33.5146C65.9591 33.5146 64.7356 34.9976 64.7356 36.876C64.7356 38.7543 65.9591 40.2249 67.8004 40.2249C68.5665 40.2249 69.1721 39.9283 69.7282 39.607C69.963 39.4835 70.2102 39.3722 70.4697 39.7182L71.1 40.5092ZM76.9821 31.5126C74.0164 31.5126 71.6561 33.8359 71.6561 36.8636C71.6561 39.916 74.0288 42.2146 76.9821 42.2146C79.948 42.2146 82.3088 39.9036 82.3088 36.8636C82.3207 33.8483 79.948 31.5126 76.9821 31.5126ZM76.9821 40.1755C75.1657 40.1755 73.8681 38.7173 73.8681 36.876C73.8681 35.0099 75.1533 33.5764 76.9821 33.5764C78.799 33.5764 80.0963 35.0099 80.0963 36.876C80.0963 38.7173 78.8114 40.1755 76.9821 40.1755ZM60.5834 26.9649C60.8552 26.9649 61.053 27.1997 61.053 27.4469V41.4607C61.053 41.7202 60.8676 41.9427 60.5834 41.9427H59.3352C59.0757 41.9427 58.8532 41.7079 58.8532 41.4607V27.4592C58.8532 27.1997 59.0881 26.9773 59.3352 26.9773H60.5834" fill="white" fill-opacity="0.7"/>
</g>
</g>
</g>
<defs>
<clipPath id="clip0_578_244">
<rect width="97.8744" height="17.7954" fill="white" transform="translate(17.4988 26.6931)"/>
</clipPath>
<clipPath id="clip1_578_244">
<rect width="97.8744" height="17.7954" fill="white" transform="translate(17.4988 26.6931)"/>
</clipPath>
</defs>
</svg>
