<svg preserveAspectRatio="none" width="100%" height="100%" overflow="visible" style="display: block;" viewBox="0 0 13.1808 7.93066" fill="none" xmlns="http://www.w3.org/2000/svg">
<path id="Subtract Icon" d="M12.7354 0C13.0773 0 13.2913 0.369579 13.1212 0.666016L9.07429 7.70801C8.99496 7.84593 8.84766 7.93063 8.68855 7.93066H0.445381C0.104422 7.93066 -0.1097 7.56305 0.0586624 7.2666L4.01765 0.299805L5.96491 3.77832L5.55085 4.52637C5.52427 4.57485 5.55899 4.63406 5.61433 4.63574L6.95808 4.67676C6.98488 4.67757 7.01066 4.66457 7.02448 4.6416L7.73835 3.44629C7.7672 3.39791 7.73404 3.33605 7.6778 3.33398L6.80769 3.30566C6.33585 2.42212 5.40321 0.817326 4.92585 0H12.7354Z" fill="var(--fill-0, #FECB33)"/>
</svg>
