<svg width="98" height="18" viewBox="0 0 98 18" fill="none" xmlns="http://www.w3.org/2000/svg">
<g clip-path="url(#clip0_0_78)">
<g clip-path="url(#clip1_0_78)">
<mask id="mask0_0_78" style="mask-type:luminance" maskUnits="userSpaceOnUse" x="0" y="0" width="98" height="18">
<path d="M97.436 0H0.475341V17.8182H97.436V0Z" fill="white"/>
</mask>
<g mask="url(#mask0_0_78)">
<path d="M26.6458 5.11036C26.9057 5.11036 27.1284 5.32071 27.1284 5.59293V14.8114C27.1284 15.0712 26.8933 15.2816 26.6458 15.2816H25.3961C25.161 15.2816 24.9258 15.096 24.9258 14.8361V13.9824C24.2948 14.9104 23.2059 15.5538 21.622 15.5538C18.9741 15.5538 17.3408 13.7967 17.3408 11.1858V5.56818C17.3408 5.30834 17.5758 5.09798 17.8233 5.09798H19.0731C19.3329 5.09798 19.5433 5.30834 19.5433 5.56818V10.827C19.5433 12.5222 20.4342 13.6483 22.1913 13.6483C23.9112 13.6483 24.9258 12.4851 24.9258 10.8518V5.56818C24.9258 5.30834 25.161 5.09798 25.3961 5.09798H26.6458V5.11036ZM8.20893 0C3.92761 0 0.475341 3.32854 0.475341 7.77069C0.475341 12.2252 3.92761 15.5414 8.20893 15.5414C8.939 15.5414 9.6443 15.4424 10.3125 15.2568L11.1539 17.4222C11.2405 17.6574 11.4137 17.8058 11.7231 17.8058H13.0595C13.3811 17.8058 13.6163 17.5955 13.4678 17.1871L12.3789 14.3536C14.5195 13.0048 15.9425 10.6167 15.9425 7.75834C15.9425 3.32854 12.4902 0 8.20893 0ZM11.5746 12.2871L10.597 9.75053C10.5104 9.54016 10.3372 9.3422 9.96598 9.3422H8.6915C8.36977 9.3422 8.12233 9.55251 8.27082 9.96084L9.55765 13.2894C9.13696 13.4008 8.67915 13.4502 8.20893 13.4502C5.07837 13.4502 2.8511 10.9879 2.8511 7.77069C2.8511 4.55354 5.07837 2.09116 8.20893 2.09116C11.3395 2.09116 13.5667 4.55354 13.5667 7.77069C13.5667 9.65152 12.812 11.2601 11.5746 12.2871ZM97.3991 14.7619C97.5101 15.0217 97.3741 15.2692 97.0647 15.2692H95.6665C95.407 15.2692 95.1962 15.1455 95.11 14.8856L92.5234 7.93159L89.9006 14.8856C89.7889 15.1578 89.6036 15.2692 89.3435 15.2692H88.0938C87.8337 15.2692 87.6484 15.1578 87.5367 14.8856L84.8889 7.89447L82.278 14.8856C82.1669 15.1455 81.981 15.2692 81.7214 15.2692H80.41C80.1499 15.2692 79.9646 15.1455 79.8529 14.8856L77.2669 7.89447L74.5942 14.8856C74.4825 15.1578 74.2972 15.2692 74.0371 15.2692H72.7874C72.5279 15.2692 72.3419 15.1578 72.2309 14.8856L69.6199 7.89447L67.009 14.8856C66.9222 15.1455 66.712 15.2692 66.4524 15.2692H65.0911C64.7692 15.2692 64.6457 15.0093 64.7567 14.7619L68.296 5.50631C68.4071 5.23409 68.593 5.09798 68.8525 5.09798H70.3748C70.6344 5.09798 70.8203 5.22172 70.9313 5.50631L73.4805 12.2624L76.0048 5.50631C76.1158 5.23409 76.3017 5.09798 76.5613 5.09798H78.0586C78.3188 5.09798 78.5041 5.22172 78.6157 5.50631L81.115 12.2624L83.6143 5.50631C83.726 5.23409 83.9113 5.09798 84.1714 5.09798H85.6806C85.9408 5.09798 86.1261 5.22172 86.2378 5.50631L88.7745 12.2624L91.2488 5.50631C91.3605 5.23409 91.5458 5.09798 91.8059 5.09798H93.3282C93.5878 5.09798 93.7737 5.22172 93.8847 5.50631L97.3991 14.7619ZM38.7597 5.11036H37.5099C37.2501 5.11036 37.0274 5.32071 37.0274 5.59293V6.43433C36.3963 5.48157 35.1589 4.80101 33.6989 4.80101C30.9395 4.80101 28.5761 6.97879 28.5761 10.1589C28.5761 13.376 30.9519 15.5414 33.6864 15.5414C35.1713 15.5414 36.3716 14.8608 37.0398 13.9081V14.799C37.0398 15.0589 37.2749 15.2692 37.5223 15.2692H38.7721C39.0319 15.2692 39.2423 15.0589 39.2423 14.799V5.59293C39.2299 5.32071 39.0196 5.11036 38.7597 5.11036ZM33.9339 13.5121C32.115 13.5121 30.8158 12.0273 30.8158 10.1836C30.8158 8.31516 32.1026 6.87978 33.9339 6.87978C35.7405 6.87978 37.0521 8.31516 37.0521 10.1836C37.0398 12.0396 35.7281 13.5121 33.9339 13.5121ZM53.6701 13.8339C53.9423 14.168 53.7072 14.4278 53.5587 14.5392C52.6925 15.1949 51.5418 15.5538 50.2921 15.5538C47.1367 15.5538 45.0332 13.2399 45.0332 10.196C45.0332 7.15204 47.1367 4.81339 50.2921 4.81339C51.5418 4.81339 52.6802 5.17222 53.5587 5.82803C53.7072 5.9394 53.9175 6.16212 53.6701 6.53334L53.0761 7.36236C52.841 7.68409 52.5688 7.5975 52.3337 7.44901C51.7769 7.11492 51.1211 6.83031 50.3663 6.83031C48.5226 6.83031 47.2976 8.31516 47.2976 10.196C47.2976 12.0768 48.5226 13.5492 50.3663 13.5492C51.1334 13.5492 51.7398 13.2523 52.2966 12.9305C52.5317 12.8068 52.7792 12.6955 53.039 13.0419L53.6701 13.8339ZM59.5598 4.82576C56.5902 4.82576 54.2269 7.15204 54.2269 10.1836C54.2269 13.2399 56.6027 15.5414 59.5598 15.5414C62.5295 15.5414 64.8933 13.2275 64.8933 10.1836C64.9052 7.1644 62.5295 4.82576 59.5598 4.82576ZM59.5598 13.4998C57.741 13.4998 56.4418 12.0396 56.4418 10.196C56.4418 8.32751 57.7287 6.8922 59.5598 6.8922C61.379 6.8922 62.678 8.32751 62.678 10.196C62.678 12.0396 61.3915 13.4998 59.5598 13.4998ZM43.14 0.272222C43.4122 0.272222 43.6102 0.507324 43.6102 0.754796V14.7866C43.6102 15.0465 43.4246 15.2692 43.14 15.2692H41.8902C41.6304 15.2692 41.4077 15.0341 41.4077 14.7866V0.767174C41.4077 0.507324 41.6428 0.284596 41.8902 0.284596H43.14" fill="white" fill-opacity="0.7"/>
</g>
</g>
</g>
<defs>
<clipPath id="clip0_0_78">
<rect width="97.8744" height="17.7954" fill="white" transform="scale(1.00128)"/>
</clipPath>
<clipPath id="clip1_0_78">
<rect width="97.8744" height="17.7954" fill="white" transform="scale(1.00128)"/>
</clipPath>
</defs>
</svg>
