<svg width="93" height="16" viewBox="0 0 93 16" fill="none" xmlns="http://www.w3.org/2000/svg">
<g clip-path="url(#clip0_0_228)">
<path d="M92.4885 4.58978C92.6429 4.58978 92.7509 4.65151 92.8127 4.75955C92.8435 4.82128 92.8898 4.94475 92.7664 5.11452L91.0223 7.78454V9.60571C91.0223 9.85265 90.868 10.007 90.6365 10.007H90.3896C90.1426 10.007 90.0037 9.85265 90.0037 9.60571V7.78454L88.2443 5.11452C88.1363 4.92932 88.1671 4.80585 88.198 4.74412C88.2443 4.63608 88.3678 4.57434 88.5221 4.57434H88.8462C89.0468 4.57434 89.1703 4.65151 89.2629 4.82128L90.513 6.84309L91.7786 4.82128C91.8712 4.66695 92.0101 4.58978 92.1953 4.58978H92.4885ZM50.0305 4.58978H47.2833C47.0364 4.58978 46.8975 4.74412 46.8975 4.99105V9.62115C46.8975 9.86808 47.0518 10.0224 47.2833 10.0224H47.5303C47.7772 10.0224 47.9161 9.86808 47.9161 9.62115V7.79998H49.7064C49.9533 7.79998 50.0922 7.63021 50.0922 7.3987V7.29067C50.0922 7.04373 49.9379 6.88939 49.7064 6.88939H47.9161V5.4695H50.0305C50.2774 5.4695 50.4163 5.31516 50.4163 5.06822V4.96019C50.4318 4.72868 50.2774 4.58978 50.0305 4.58978ZM39.3967 4.58978H37.9922C37.7453 4.58978 37.6064 4.74412 37.6064 4.99105V9.62115C37.6064 9.86808 37.7607 10.0224 37.9922 10.0224H39.4121C41.0481 10.0224 42.1748 8.9112 42.1748 7.32154C42.1593 5.701 41.0327 4.58978 39.3967 4.58978ZM41.1098 7.29067C41.1098 8.35559 40.3999 9.0964 39.3813 9.0964H38.625V5.4695H39.3813C40.3999 5.48493 41.1098 6.22574 41.1098 7.29067ZM56.6361 4.58978H56.8831C57.13 4.58978 57.2689 4.74412 57.2689 4.99105V9.62115C57.2689 9.86808 57.1146 10.0224 56.8831 10.0224H56.6361C56.3892 10.0224 56.2503 9.86808 56.2503 9.62115V4.99105C56.2348 4.72868 56.3892 4.58978 56.6361 4.58978ZM66.9767 4.58978H66.7297C66.4828 4.58978 66.3439 4.74412 66.3439 4.99105V8.07778L63.9517 4.82128C63.8436 4.66695 63.7047 4.60521 63.535 4.60521H63.4269C63.18 4.60521 63.0411 4.75955 63.0411 5.00649V9.63658C63.0411 9.88352 63.1954 10.0379 63.4269 10.0379H63.6739C63.9208 10.0379 64.0597 9.88352 64.0597 9.63658V6.53442L66.4519 9.80635C66.56 9.96069 66.6989 10.0224 66.8686 10.0224H66.9767C67.2236 10.0224 67.3625 9.86808 67.3625 9.62115V4.99105C67.3625 4.72868 67.2082 4.58978 66.9767 4.58978ZM73.5051 4.58978H73.7521C73.9836 4.58978 74.1379 4.74412 74.1379 4.99105V9.62115C74.1379 9.86808 73.9836 10.0224 73.7521 10.0224H73.5051C73.2582 10.0224 73.1193 9.86808 73.1193 9.62115V4.99105C73.1193 4.72868 73.2582 4.58978 73.5051 4.58978ZM83.5061 4.58978H79.8792C79.6477 4.58978 79.4934 4.74412 79.4934 4.99105V5.09909C79.4934 5.3306 79.6477 5.50036 79.8792 5.50036H81.1757V9.62115C81.1757 9.86808 81.33 10.0224 81.5615 10.0224H81.8084C82.0554 10.0224 82.1943 9.86808 82.1943 9.62115V5.50036H83.4907C83.7377 5.50036 83.8766 5.34603 83.8766 5.09909V4.99105C83.9074 4.72868 83.7531 4.58978 83.5061 4.58978Z" fill="white" fill-opacity="0.7"/>
<path d="M23.1 0.191508C21.4177 0.191508 19.5811 1.08666 17.6365 2.86153C16.7104 3.69495 15.9079 4.5901 15.3214 5.31548C15.3214 5.31548 16.2629 6.3804 17.2969 7.52248C17.8525 6.82797 18.6705 5.88652 19.5965 5.03767C21.3251 3.46344 22.4518 3.13933 23.1 3.13933C25.5231 3.13933 27.4986 5.13027 27.4986 7.59965C27.4986 10.0382 25.5385 12.0291 23.1 12.06C22.9919 12.06 22.8376 12.0445 22.6833 12.0137C23.3932 12.3378 24.1495 12.5693 24.8748 12.5693C29.3197 12.5693 30.184 9.55973 30.2458 9.34366C30.3692 8.78804 30.4464 8.217 30.4464 7.61509C30.4155 3.50974 27.1436 0.191508 23.1 0.191508Z" fill="white" fill-opacity="0.7"/>
<path d="M7.57345 14.9926C9.25572 14.9926 11.0923 14.0975 13.037 12.3226C13.963 11.4892 14.7655 10.594 15.352 9.86866C15.352 9.86866 14.4106 8.80374 13.3765 7.66165C12.8209 8.35617 12.0029 9.29762 11.0769 10.1465C9.34833 11.7207 8.22167 12.0448 7.57345 12.0448C5.15037 12.0448 3.17486 10.0539 3.17486 7.58448C3.17486 5.14597 5.13493 3.15503 7.57345 3.12417C7.68149 3.12417 7.83583 3.1396 7.99016 3.17047C7.28021 2.84636 6.52396 2.61486 5.79858 2.61486C1.35368 2.61486 0.489397 5.62442 0.427662 5.84049C0.304192 6.3961 0.227024 6.96714 0.227024 7.56905C0.242458 11.659 3.52983 14.9926 7.57345 14.9926Z" fill="white" fill-opacity="0.7"/>
<path d="M10.9528 5.09941C10.4744 4.6364 8.09759 2.75349 5.8134 2.69176C1.75434 2.59916 0.565949 5.46981 0.473347 5.85565C1.24503 2.61459 4.14656 0.206941 7.58827 0.191508C10.3972 0.191508 13.2216 2.87696 15.3206 5.31548C15.3206 5.31548 15.3206 5.30004 15.336 5.30004C15.336 5.30004 16.2774 6.36496 17.3115 7.50705C17.3115 7.50705 18.4845 8.86521 19.7346 10.069C20.213 10.532 22.5898 12.3995 24.8586 12.4612C29.0257 12.5693 30.1678 9.52886 30.2449 9.29735C29.4732 12.5538 26.5717 14.9769 23.13 14.9924C20.3211 14.9924 17.4967 12.2915 15.3823 9.8684L15.3669 9.88383C15.3669 9.88383 14.4254 8.81891 13.3913 7.67682C13.3759 7.66139 12.2029 6.30323 10.9528 5.09941ZM0.457913 5.87109C0.457913 5.87109 0.457913 5.85565 0.457913 5.84022C0.473347 5.85565 0.473347 5.87109 0.457913 5.87109Z" fill="white" fill-opacity="0.7"/>
</g>
<defs>
<clipPath id="clip0_0_228">
<rect width="92.5358" height="15.4226" fill="white" transform="scale(1.00502)"/>
</clipPath>
</defs>
</svg>
